<svg width="37" height="37" viewBox="0 0 37 37" fill="none" xmlns="http://www.w3.org/2000/svg">
<path d="M34.7669 0.0264587H1.82982C0.819329 0.0264587 0 0.854701 0 1.87645V24.0766C0 25.0983 0.819329 25.9265 1.82982 25.9265H12.1989C13.8825 25.9285 15.2466 27.3078 15.2486 29.0099C15.2456 30.7115 13.882 32.0901 12.1989 32.0931C12.1904 32.0931 12.1836 32.0976 12.175 32.0982C12.1308 32.1017 12.087 32.1105 12.0446 32.1247C12.0107 32.1313 11.9775 32.1407 11.9452 32.1525C11.9099 32.1719 11.8766 32.1946 11.8457 32.2202C11.8141 32.2408 11.7843 32.2642 11.7568 32.29C11.7341 32.3176 11.7135 32.3471 11.6956 32.3781C11.6695 32.4144 11.6474 32.4535 11.6299 32.4946C11.6299 32.5021 11.6213 32.5069 11.6189 32.515L10.399 36.2149C10.2925 36.5382 10.4654 36.8874 10.785 36.995C10.8475 37.0161 10.9131 37.0267 10.9791 37.0265H25.6178C25.9545 37.0262 26.2275 36.75 26.2272 36.4094C26.2272 36.3432 26.2167 36.2777 26.196 36.2149L24.9762 32.515C24.9762 32.5069 24.9676 32.5021 24.9652 32.4946C24.9475 32.4536 24.9254 32.4148 24.8993 32.3787C24.8814 32.3474 24.8611 32.3177 24.8382 32.29C24.8107 32.2642 24.7807 32.2408 24.7492 32.2202C24.7182 32.1946 24.685 32.1719 24.6498 32.1525C24.6174 32.1407 24.5841 32.1313 24.5503 32.1247C24.508 32.1107 24.4643 32.1017 24.4198 32.0982C24.4112 32.0982 24.4047 32.0931 24.3961 32.0931C22.7129 32.0901 21.3494 30.7115 21.3464 29.0099C21.3484 27.3078 22.7125 25.9285 24.3961 25.9265H34.7669C35.7776 25.9265 36.5967 25.0983 36.5967 24.0766V1.87645C36.5967 0.854701 35.7776 0.0264587 34.7669 0.0264587V0.0264587ZM20.1282 29.0099C20.1311 31.2173 21.779 33.0681 23.9502 33.3024L24.7711 35.7932H11.8257L12.6467 33.3024C14.8178 33.0681 16.4656 31.2176 16.4685 29.0099C16.4689 27.8485 16.0045 26.7363 15.1809 25.9265H21.4158C20.5923 26.7363 20.1279 27.8485 20.1282 29.0099V29.0099ZM35.3769 24.0766C35.3769 24.4171 35.1038 24.6932 34.7669 24.6932H1.82982C1.49291 24.6932 1.21992 24.4171 1.21992 24.0766V22.2266H35.3769V24.0766ZM1.21992 20.9932V1.87645C1.21992 1.53583 1.49291 1.25982 1.82982 1.25982H34.7669C35.1038 1.25982 35.3769 1.53583 35.3769 1.87645V20.9932H1.21992Z" fill="#95E1D3"/>
<path d="M25.8105 9.30862L24.0544 8.71642L24.8821 7.04159C24.9994 6.80426 24.9532 6.51751 24.7674 6.33008L23.0424 4.58608C22.8571 4.3983 22.5734 4.35156 22.3387 4.47016L20.682 5.30693L20.0964 3.5315C20.0135 3.27992 19.7806 3.11013 19.5182 3.10978H17.0784C16.816 3.1099 16.5832 3.27992 16.5003 3.5315L15.9148 5.30693L14.2581 4.47016C14.0232 4.35156 13.7398 4.3983 13.5542 4.58608L11.8293 6.33008C11.6437 6.51763 11.5975 6.80426 11.7146 7.04159L12.5422 8.71642L10.7864 9.30862C10.5373 9.3924 10.3694 9.62774 10.369 9.89311V12.3598C10.3694 12.6251 10.5373 12.8605 10.7864 12.9443L12.5422 13.5363L11.7146 15.2112C11.5975 15.4487 11.6437 15.7354 11.8293 15.9229L13.5542 17.6669C13.7398 17.8546 14.0232 17.9011 14.2581 17.7828L15.9148 16.946L16.5003 18.7213C16.5832 18.973 16.816 19.1428 17.0784 19.1432H19.5182C19.7806 19.1429 20.0135 18.973 20.0966 18.7213L20.6821 16.946L22.3387 17.7828C22.5734 17.9011 22.8571 17.8546 23.0424 17.6669L24.7674 15.9229C24.9532 15.7352 24.9994 15.4487 24.8821 15.2112L24.0544 13.5363L25.8105 12.9443C26.0594 12.8605 26.2275 12.6251 26.2276 12.3598V9.89311C26.2275 9.62785 26.0594 9.3924 25.8105 9.30862V9.30862ZM25.0077 11.9152L23.0011 12.5935C22.6815 12.7014 22.509 13.0508 22.6157 13.3739C22.6249 13.4011 22.6357 13.4279 22.6485 13.4537L23.5946 15.3655L22.4911 16.4809L20.6004 15.5246C20.2996 15.371 19.9328 15.4931 19.781 15.797C19.7674 15.824 19.7559 15.8522 19.7464 15.8809L19.0786 17.9098H17.5183L16.8474 15.8809C16.7407 15.5578 16.3951 15.3836 16.0755 15.4914C16.0485 15.5007 16.022 15.5115 15.9965 15.5246L14.1056 16.4809L13.0023 15.3655L13.9483 13.4538C14.0988 13.149 13.9763 12.7787 13.675 12.6266C13.6493 12.6139 13.6229 12.6028 13.5958 12.5935L11.5891 11.9152V10.3378L13.5958 9.6594C13.9154 9.55167 14.0878 9.20228 13.981 8.87919C13.972 8.85173 13.9612 8.82509 13.9483 8.79926L13.0023 6.88758L14.1056 5.77212L15.9965 6.72843C16.298 6.88057 16.6642 6.75682 16.8147 6.45196C16.8274 6.42613 16.8384 6.39937 16.8474 6.37215L17.5183 4.34326H19.0786L19.7495 6.37215C19.8555 6.69536 20.2006 6.87052 20.5204 6.76337C20.5489 6.7539 20.5766 6.74222 20.6034 6.72843L22.4944 5.77212L23.5977 6.88758L22.6516 8.79926C22.5013 9.10401 22.6236 9.47431 22.925 9.62633C22.9507 9.63919 22.977 9.65029 23.0042 9.65952L25.011 10.3378L25.0077 11.9152Z" fill="#95E1D3"/>
<path d="M18.2983 7.4265C16.2772 7.4265 14.6387 9.08298 14.6387 11.1265C14.6387 13.1698 16.2772 14.8264 18.2983 14.8264C20.3195 14.8264 21.9579 13.1698 21.9579 11.1265C21.9559 9.08391 20.3186 7.42848 18.2983 7.4265ZM18.2983 13.5931C16.9509 13.5931 15.8586 12.4887 15.8586 11.1265C15.8586 9.7641 16.9509 8.65974 18.2983 8.65974C19.6458 8.65974 20.7381 9.7641 20.7381 11.1265C20.7381 12.4887 19.6458 13.5931 18.2983 13.5931V13.5931Z" fill="#95E1D3"/>
</svg>
